<svg width="79" height="63" viewBox="0 0 79 63" fill="none" xmlns="http://www.w3.org/2000/svg">
<rect width="79" height="62.8193" rx="8" fill="#3E61FF"/>
<path d="M70.0532 10.8031C69.6702 10.6152 69.5048 10.9733 69.2811 11.1553C69.2048 11.214 69.1397 11.2903 69.0746 11.3608C68.515 11.9596 67.8611 12.353 67.0059 12.306C65.7565 12.2355 64.6896 12.6289 63.7469 13.5858C63.5464 12.4058 62.8805 11.7013 61.8668 11.2492C61.3356 11.0144 60.7999 10.7796 60.428 10.2688C60.1692 9.90479 60.0988 9.4997 59.9687 9.10051C59.8864 8.85979 59.8041 8.61322 59.5273 8.57211C59.2257 8.52514 59.1083 8.7776 58.9901 8.98895C58.5187 9.85196 58.3354 10.8031 58.3541 11.7659C58.3945 13.9322 59.3088 15.6583 61.1239 16.8853C61.3303 17.0262 61.3835 17.1671 61.3184 17.3725C61.1949 17.7952 61.0468 18.2062 60.9174 18.6289C60.835 18.899 60.7116 18.9577 60.4221 18.8403C59.4262 18.4234 58.5658 17.807 57.8049 17.0614C56.5144 15.8109 55.3472 14.4312 53.892 13.351C53.5551 13.1018 53.209 12.8649 52.8543 12.6406C51.3692 11.1964 53.0488 10.0105 53.4379 9.86957C53.8442 9.7228 53.5793 9.21791 52.2648 9.22377C50.9503 9.22962 49.7479 9.66998 48.2157 10.2571C47.9913 10.3451 47.7555 10.4097 47.5147 10.4626C46.123 10.1983 44.6791 10.1396 43.17 10.3099C40.3292 10.6269 38.06 11.9714 36.3916 14.2669C34.388 17.0262 33.9159 20.1612 34.4943 23.4313C35.1003 26.8775 36.8577 29.7308 39.5571 31.9617C42.3568 34.2748 45.5806 35.4079 49.2586 35.1907C51.4927 35.0615 53.9796 34.7621 56.7852 32.3844C57.493 32.7367 58.2359 32.8776 59.4674 32.9832C60.4168 33.0713 61.3303 32.9363 62.0374 32.7895C63.1454 32.5547 63.0683 31.5272 62.6681 31.3394C59.4203 29.8247 60.1333 30.4411 59.4854 29.9421C61.1358 27.9871 63.6227 25.9558 64.5954 19.3745C64.6724 18.852 64.6073 18.5233 64.5954 18.1006C64.5893 17.8422 64.6477 17.7424 64.9432 17.7131C65.7565 17.6191 66.5466 17.396 67.2716 16.9968C69.3754 15.8462 70.2245 13.9557 70.4251 11.6895C70.455 11.3432 70.4191 10.9851 70.0532 10.8031ZM51.7164 31.1985C48.5696 28.721 47.0425 27.9049 46.4119 27.9401C45.8223 27.9754 45.9285 28.6505 46.058 29.0908C46.1934 29.5253 46.3707 29.8247 46.6183 30.2063C46.7889 30.4588 46.9072 30.8345 46.447 31.1163C45.4332 31.7445 43.6713 30.9049 43.589 30.8639C41.5375 29.6544 39.822 28.0575 38.6137 25.8736C37.4466 23.7718 36.7695 21.5174 36.6572 19.1104C36.6273 18.5291 36.7986 18.3236 37.3755 18.2179C38.1352 18.0728 38.9142 18.0529 39.6806 18.1593C42.8932 18.629 45.6285 20.0673 47.9209 22.3452C49.2295 23.6427 50.2193 25.1926 51.2398 26.7073C52.3239 28.3159 53.491 29.8482 54.9761 31.1045C55.5006 31.5448 55.9188 31.8795 56.3198 32.1261C55.1115 32.2611 53.0953 32.2905 51.7164 31.1985ZM53.2254 21.4822C53.2254 21.2239 53.4319 21.0184 53.6915 21.0184C53.7504 21.0194 53.8032 21.0291 53.8501 21.0477C53.9395 21.0814 54.0161 21.1411 54.0699 21.2187C54.1237 21.2964 54.1519 21.3883 54.1509 21.4822C54.1517 21.5427 54.1403 21.6027 54.1173 21.6589C54.0942 21.715 54.0601 21.7661 54.0168 21.8093C53.9736 21.8524 53.922 21.8867 53.8651 21.9102C53.8083 21.9336 53.7472 21.9458 53.6855 21.946C53.6241 21.9458 53.5633 21.9336 53.5067 21.9101C53.4501 21.8866 53.3989 21.8522 53.3561 21.809C53.3132 21.7658 53.2796 21.7146 53.2571 21.6585C53.2347 21.6024 53.2239 21.5424 53.2254 21.4822ZM57.9112 23.8892C57.6112 24.0125 57.3104 24.1182 57.0209 24.1299C56.5735 24.1534 56.0842 23.9715 55.8193 23.7483C55.4063 23.4019 55.1115 23.2082 54.9881 22.6035C54.935 22.3452 54.9641 21.946 55.0113 21.717C55.1175 21.2239 54.9993 20.9069 54.6522 20.6192C54.3694 20.3843 54.0095 20.3197 53.6145 20.3197C53.4671 20.3197 53.3317 20.2552 53.2314 20.2023C53.1826 20.1794 53.1391 20.1468 53.1037 20.1066C53.0684 20.0665 53.0418 20.0195 53.0258 19.9688C53.0098 19.9181 53.0046 19.8647 53.0107 19.8119C53.0167 19.7592 53.0338 19.7082 53.0608 19.6622C53.102 19.58 53.3025 19.3804 53.3496 19.3452C53.886 19.0399 54.5048 19.1397 55.0764 19.3687C55.6068 19.5859 56.0071 19.9851 56.5855 20.5487C57.175 21.2298 57.2812 21.4176 57.6164 21.9284C57.882 22.3276 58.1237 22.7386 58.2883 23.2082C58.3893 23.5018 58.2591 23.7425 57.9112 23.8892Z" fill="white"/>
</svg>
