<svg width="14" height="13" viewBox="0 0 14 13" fill="none" xmlns="http://www.w3.org/2000/svg">
<path d="M12.4162 6.50021H11.5716C11.5396 6.50021 11.5088 6.48753 11.4861 6.46495C11.4634 6.44236 11.4505 6.41171 11.4503 6.37966V1.55012H1.55012V11.4503H6.37966C6.44612 11.4503 6.50021 11.5044 6.50021 11.5716V12.4162C6.50021 12.4827 6.44612 12.5375 6.37966 12.5375H0.946618C0.883102 12.5377 0.820172 12.5254 0.761442 12.5012C0.702712 12.477 0.64934 12.4415 0.604391 12.3966C0.559442 12.3517 0.523803 12.2984 0.49952 12.2397C0.475237 12.181 0.462789 12.1181 0.462891 12.0546V0.946618C0.462891 0.679254 0.679255 0.462891 0.946618 0.462891H12.0538C12.3212 0.462891 12.5368 0.679254 12.5368 0.946618V6.37889C12.5368 6.44612 12.4827 6.50021 12.4162 6.50021Z" fill="#D7D9DD"/>
<path d="M6.93118 12.512L8.70149 7.70872H9.93786L11.8851 12.5112H10.6395L10.3343 11.6689H8.4434L8.16677 12.5112H6.9304L6.93118 12.512ZM8.74786 10.3847H10.0089L9.33899 8.61358L8.74786 10.3847ZM12.8634 8.85467C12.6871 8.85858 12.5165 8.79244 12.3889 8.67077C12.3229 8.61133 12.2702 8.53861 12.2343 8.45738C12.1983 8.37615 12.1799 8.28823 12.1803 8.1994C12.1785 8.03786 12.2319 7.88055 12.3318 7.75354C12.3943 7.68016 12.4728 7.62195 12.5611 7.58326C12.6494 7.54458 12.7454 7.52645 12.8418 7.53022C12.93 7.52919 13.0176 7.54581 13.0994 7.57911C13.1811 7.61241 13.2554 7.66172 13.3178 7.72414C13.3802 7.78656 13.4295 7.86082 13.4628 7.94257C13.4961 8.02432 13.5128 8.11191 13.5117 8.20018C13.508 8.35796 13.4517 8.50998 13.3518 8.63213C13.2928 8.70407 13.2181 8.76153 13.1334 8.80011C13.0488 8.83869 12.9564 8.85735 12.8634 8.85467ZM12.3395 12.512V9.2534H13.4298V12.512H12.3387H12.3395ZM3.38281 4.74686H9.59013V3.66504H3.38281V4.74686ZM3.38281 7.75972H6.49845V6.6779H3.38281V7.75972Z" fill="#D7D9DD"/>
</svg>
