<svg width="13" height="13" viewBox="0 0 13 13" fill="none" xmlns="http://www.w3.org/2000/svg">
<path opacity="0.8" d="M7.65789 0C8.59676 0 9.37674 0.692978 9.45871 1.58852H11.4047C11.8154 1.58848 12.2104 1.74688 12.5073 2.03074C12.8042 2.31461 12.9802 2.70206 12.9986 3.11242L13 3.18356V8.76777C12.9995 8.90452 12.9463 9.0358 12.8515 9.13438C12.7568 9.23295 12.6277 9.29124 12.4911 9.29715C12.3544 9.30305 12.2208 9.25611 12.1179 9.16608C12.015 9.07604 11.9507 8.94983 11.9384 8.81364L11.9362 8.76777V3.18356C11.9362 2.9055 11.7224 2.67692 11.4505 2.65381L11.4046 2.652L9.46591 2.65164V2.95858C9.46591 3.90542 8.69026 4.66627 7.73008 4.70275L7.65787 4.70419H5.10563C4.1368 4.70419 3.3373 3.96644 3.29868 3.02936L3.29724 2.95894V2.65164H1.59535C1.3173 2.65164 1.08872 2.86542 1.06562 3.13769L1.06345 3.18356V11.4046C1.06345 11.6827 1.27722 11.9113 1.54948 11.9347L1.59535 11.9365H9.04052C9.17726 11.937 9.30855 11.9902 9.40712 12.085C9.50569 12.1798 9.56398 12.3089 9.56989 12.4455C9.57579 12.5821 9.52885 12.7157 9.43882 12.8187C9.34879 12.9216 9.22258 12.9859 9.0864 12.9982L9.04052 13H1.59535C1.18453 13 0.789523 12.8416 0.492608 12.5577C0.195692 12.2737 0.0197547 11.8862 0.00143876 11.4757L8.48889e-09 11.4046V3.18356C-4.2345e-05 2.77273 0.158402 2.37771 0.442333 2.08079C0.726264 1.78386 1.11379 1.60792 1.52421 1.58961L1.59535 1.58817H3.30443C3.3846 0.716083 4.12703 0.0357501 5.03303 0.00143892L5.10525 0H7.65789ZM7.31232 5.31087C7.50154 5.31087 7.67522 5.41125 7.77018 5.57231L7.79222 5.61383C7.86798 5.77212 7.98465 5.90729 8.13015 6.00538C8.27566 6.10346 8.44472 6.1609 8.61986 6.17175L8.68378 6.17392C8.75476 6.17208 8.82539 6.18448 8.89151 6.21037C8.95763 6.23627 9.01789 6.27515 9.06875 6.3247C9.1196 6.37426 9.16002 6.4335 9.18762 6.49893C9.21521 6.56436 9.22943 6.63465 9.22943 6.70566C9.22943 6.77666 9.21521 6.84696 9.18762 6.91238C9.16002 6.97781 9.1196 7.03705 9.06875 7.08661C9.01789 7.13617 8.95763 7.17504 8.89151 7.20094C8.82539 7.22683 8.75476 7.23923 8.68378 7.23739C8.41457 7.23758 8.14796 7.18482 7.89911 7.0821L7.84132 7.05683L7.83953 9.02489C7.83953 10.1833 6.91799 11.1204 5.76753 11.1598L5.69205 11.1609C5.41047 11.1609 5.13164 11.1054 4.8715 10.9976C4.61135 10.8899 4.37497 10.7319 4.17586 10.5328C3.97675 10.3337 3.81881 10.0973 3.71106 9.83716C3.6033 9.57701 3.54784 9.29817 3.54784 9.01658C3.54784 8.73499 3.6033 8.45616 3.71106 8.19601C3.81881 7.93585 3.97675 7.69947 4.17586 7.50035C4.37497 7.30124 4.61135 7.14329 4.8715 7.03553C5.13164 6.92777 5.41047 6.87231 5.69205 6.87231C5.82882 6.87275 5.96016 6.92585 6.0588 7.0206C6.15744 7.11534 6.2158 7.24444 6.22175 7.38109C6.22769 7.51773 6.18078 7.65141 6.09075 7.75437C6.00072 7.85733 5.87449 7.92165 5.73828 7.93398L5.69207 7.93614C5.40548 7.93614 5.13062 8.05 4.92797 8.25265C4.72532 8.45531 4.61147 8.73017 4.61147 9.01677C4.61147 9.30337 4.72532 9.57823 4.92797 9.78089C5.13062 9.98354 5.40548 10.0974 5.69207 10.0974C6.27163 10.0974 6.74287 9.65106 6.77427 9.08556L6.77608 9.02452L6.77969 5.84206C6.77969 5.564 6.99347 5.33614 7.26538 5.31302L7.31232 5.31087ZM7.65789 1.06348H5.10563C4.70624 1.06348 4.38956 1.34839 4.36284 1.69758L4.36104 1.74525V2.95858C4.36104 3.31321 4.66075 3.61327 5.05146 3.63892L5.10563 3.64073H7.65789C8.0569 3.64073 8.37395 3.35581 8.40068 3.00661L8.40248 2.95894V1.74561C8.40248 1.391 8.10277 1.09092 7.7117 1.06527L7.65789 1.06348Z" fill="white"/>
</svg>
