<svg width="16" height="16" viewBox="0 0 16 16" fill="none" xmlns="http://www.w3.org/2000/svg">
<g clip-path="url(#clip0_96_7979)">
<path d="M8.00009 1.84881C11.3931 1.84881 14.1515 4.60705 14.1515 8.00009C14.1515 11.3931 11.3931 14.1515 8.00009 14.1515C4.60705 14.1515 1.84881 11.3931 1.84881 8.00009C1.84881 4.60705 4.60705 1.84881 8.00009 1.84881ZM8.00009 0.496094C3.85889 0.496094 0.496094 3.85889 0.496094 8.00009C0.496094 12.1413 3.85889 15.5041 8.00009 15.5041C12.1413 15.5041 15.5041 12.1413 15.5041 8.00009C15.5041 3.85889 12.1413 0.496094 8.00009 0.496094Z" fill="#3E61FF"/>
<path d="M12.1707 8.67276H3.82779C3.53307 8.67276 3.29883 8.37052 3.29883 8.0002C3.29883 7.62996 3.53307 7.32764 3.82779 7.32764H12.163C12.4578 7.32764 12.6919 7.62988 12.6919 8.0002C12.6996 8.37804 12.4578 8.67276 12.1707 8.67276Z" fill="#3E61FF"/>
<path d="M7.32812 12.1716V3.82876C7.32812 3.53404 7.63037 3.2998 8.00069 3.2998C8.37101 3.2998 8.67324 3.53404 8.67324 3.82876V12.164C8.67324 12.4588 8.37101 12.6929 8.00069 12.6929C7.62285 12.7006 7.32812 12.4588 7.32812 12.1716Z" fill="#3E61FF"/>
</g>
<defs>
<clipPath id="clip0_96_7979">
<rect width="16" height="16" fill="white"/>
</clipPath>
</defs>
</svg>
