<svg width="13" height="13" viewBox="0 0 13 13" fill="none" xmlns="http://www.w3.org/2000/svg">
<path d="M12.7875 9.28568H7.55586C7.43651 9.28568 7.34368 9.19282 7.33705 9.07343V8.56936C7.33705 8.44997 7.43651 8.35712 7.55586 8.35712H12.7875C12.9069 8.35712 12.9997 8.44997 12.9997 8.56936V9.07343C13.0063 9.18619 12.9069 9.28568 12.7875 9.28568ZM12.7875 11.1428H7.55586C7.43651 11.1428 7.34368 11.0499 7.33705 10.9305V10.4265C7.33705 10.3071 7.43651 10.2142 7.55586 10.2142H12.7875C12.9069 10.2142 12.9997 10.3071 12.9997 10.4265V10.9305C13.0063 11.0433 12.9069 11.1428 12.7875 11.1428ZM12.7875 12.9999H7.55586C7.43651 12.9999 7.34368 12.907 7.33705 12.7877V12.2836C7.33705 12.1642 7.43651 12.0713 7.55586 12.0713H12.7875C12.9069 12.0713 12.9997 12.1642 12.9997 12.2836V12.7877C13.0063 12.907 12.9069 12.9999 12.7875 12.9999ZM6.40212 8.27089V9.21935C4.87705 9.21935 3.63711 7.99896 3.63711 6.5C3.63711 5.00104 4.87705 3.78065 6.40212 3.78065C7.92718 3.78065 9.16713 5.00104 9.16713 6.5C9.16713 6.81836 9.11408 7.13009 9.00136 7.42856H7.94045C8.11947 7.14999 8.21231 6.825 8.21231 6.5C8.21231 5.52502 7.40336 4.72248 6.40875 4.72248C5.41414 4.72248 4.60519 5.51838 4.60519 6.5C4.59856 7.47499 5.40751 8.27089 6.40212 8.27089ZM6.17004 12.0514C6.22972 12.0514 6.2894 12.0713 6.32918 12.1178C6.36896 12.1576 6.39549 12.2173 6.39549 12.277V12.7744C6.39549 12.9004 6.29603 12.9999 6.17004 12.9999H5.2749C4.8439 13.0065 4.48584 12.6683 4.46595 12.2438L4.33333 11.2887C3.94212 11.1229 3.56417 10.9107 3.21937 10.6586L2.31759 11.0234C1.93301 11.2157 1.46886 11.0831 1.24342 10.7117L0.109563 8.78823C-0.109251 8.42344 0.010102 7.9459 0.374792 7.72039L1.15059 7.13009C1.09091 6.71224 1.09091 6.28776 1.15059 5.86991L0.381422 5.27961C0.0167328 5.0541 -0.0959895 4.58319 0.116194 4.2184L1.24342 2.29496C1.46223 1.92354 1.93301 1.79089 2.31096 1.98323L3.21274 2.34802C3.55754 2.09598 3.92886 1.88374 4.3267 1.71793L4.45932 0.762842C4.48584 0.325093 4.8439 -0.0065348 5.26826 9.77574e-05H7.52934C7.96034 9.77574e-05 8.3184 0.331725 8.33829 0.756209L8.4709 1.7113C8.86212 1.87711 9.24007 2.08935 9.58486 2.34139L10.4866 1.9766C10.8712 1.78425 11.3354 1.91691 11.5542 2.28833L12.6814 4.21177C12.9002 4.57656 12.7809 5.0541 12.4228 5.27961L11.647 5.86991C11.7001 6.28776 11.7001 6.71224 11.647 7.13009L12.0382 7.42856H10.6259L10.659 7.24948C10.7519 6.75204 10.7519 6.24133 10.659 5.74389L10.606 5.46532L11.7863 4.56993L10.7784 2.8521L9.41247 3.42913L9.18702 3.24342C8.79581 2.91842 8.34492 2.66638 7.86088 2.49394L7.58902 2.39445L7.3901 0.941921H5.40088L5.20196 2.39445L4.9301 2.49394C4.44605 2.66638 4.0018 2.91842 3.60395 3.24342L3.38514 3.42913L2.00595 2.87199L1.01134 4.5633L2.19161 5.45869L2.13856 5.74389C2.09215 5.98929 2.06563 6.24133 2.06563 6.49337C2.06563 6.74541 2.09215 6.99744 2.13856 7.24285L2.19161 7.52141L1.01134 8.42344L2.01921 10.1479L3.38514 9.57087L3.61058 9.75659C4.0018 10.0816 4.45269 10.3336 4.93673 10.5061L5.20859 10.6056L5.40751 12.0581L6.17004 12.0514Z" fill="white" fill-opacity="0.8"/>
</svg>
