<svg width="13" height="15" viewBox="0 0 13 15" fill="none" xmlns="http://www.w3.org/2000/svg">
<path d="M7.58326 1.12545C7.67915 1.12545 7.77098 1.16508 7.83843 1.23516C7.90629 1.30565 7.94408 1.40076 7.94408 1.50046V13.5C7.94424 13.5992 7.90629 13.6945 7.83843 13.7653C7.80507 13.8 7.76534 13.8275 7.72155 13.8463C7.67775 13.8652 7.63074 13.8749 7.58326 13.875C7.55097 13.8804 7.51803 13.8804 7.48574 13.875L4.17418 10.5562L4.08439 10.4627L3.97224 10.3802C3.6945 10.2119 3.37764 10.1239 3.05516 10.1253H1.44449C1.39678 10.125 1.34961 10.115 1.30566 10.0959C1.26171 10.0769 1.22184 10.0491 1.18834 10.0143C1.15483 9.97943 1.12835 9.93813 1.11039 9.89276C1.09243 9.84739 1.08335 9.79883 1.08367 9.74985V5.25056C1.08367 5.04366 1.24498 4.87555 1.44449 4.87555H3.05516C3.3776 4.87709 3.69445 4.78917 3.97224 4.6211L4.08439 4.5531L4.17459 4.45966L7.48208 1.12587C7.5157 1.11994 7.55005 1.11994 7.58366 1.12587L7.58326 1.12545ZM7.58326 0.000417135C7.32846 0.00159001 7.07881 0.0741378 6.86122 0.210239L3.43061 3.64916C3.3209 3.71632 3.19657 3.75261 3.06939 3.75428H1.44449C0.646871 3.75428 0 4.42587 0 5.2539V9.75027C0 10.1478 0.152372 10.5295 0.423391 10.8106C0.55681 10.9496 0.715768 11.06 0.891047 11.1354C1.06633 11.2108 1.25444 11.2497 1.44449 11.2499H3.05516C3.18234 11.2516 3.30709 11.2874 3.41639 11.355L6.86122 14.7902C7.07901 14.9262 7.32849 14.9987 7.58326 15C8.38088 15 9.02775 14.3284 9.02775 13.5V1.50046C9.02734 0.671598 8.38088 0 7.58326 0V0.000417135ZM12.4579 6.75019H10.6526C10.5811 6.75057 10.5103 6.76544 10.4443 6.79393C10.3783 6.82243 10.3185 6.864 10.2682 6.91626C10.2179 6.96853 10.1781 7.03046 10.1511 7.09852C10.1242 7.16658 10.1105 7.23944 10.111 7.31291C10.1106 7.38635 10.1243 7.45916 10.1512 7.52717C10.1782 7.59518 10.218 7.65707 10.2683 7.70929C10.3186 7.76151 10.3785 7.80304 10.4444 7.83151C10.5103 7.85999 10.5811 7.87484 10.6526 7.87522H12.4579C12.5295 7.87489 12.6003 7.86008 12.6663 7.83163C12.7323 7.80319 12.7922 7.76166 12.8425 7.70944C12.8929 7.65721 12.9327 7.59531 12.9597 7.52727C12.9867 7.45923 13.0004 7.38639 13 7.31291C13.0005 7.2394 12.9868 7.16652 12.9598 7.09843C12.9328 7.03034 12.893 6.96839 12.8427 6.91612C12.7923 6.86385 12.7324 6.82229 12.6664 6.79381C12.6004 6.76534 12.5296 6.75052 12.4579 6.75019ZM12.3352 2.53205C12.2418 2.53288 12.1495 2.55875 12.0683 2.60714L10.5011 3.54445C10.2878 3.6721 10.1841 3.9324 10.2483 4.17934C10.313 4.42587 10.5295 4.59649 10.7754 4.5944C10.8692 4.59356 10.961 4.5677 11.0427 4.51931L12.6099 3.582C12.8232 3.45435 12.9268 3.19405 12.8622 2.94711C12.798 2.70058 12.5815 2.52996 12.3352 2.53205ZM10.7754 10.0318C10.6551 10.0313 10.5381 10.0717 10.4427 10.1469C10.3473 10.222 10.279 10.3275 10.2483 10.4469C10.2169 10.5665 10.2245 10.6935 10.2702 10.8082C10.3159 10.9229 10.397 11.019 10.5011 11.0818L12.0683 12.0191C12.1495 12.0675 12.2418 12.0934 12.3352 12.0942C12.4555 12.0947 12.5725 12.0543 12.6679 11.9792C12.7632 11.904 12.8316 11.7985 12.8622 11.6791C12.8938 11.5595 12.8862 11.4326 12.8406 11.3179C12.795 11.2032 12.7139 11.1071 12.6099 11.0442L11.0427 10.1257C10.9614 10.0774 10.8693 10.0515 10.7754 10.0506V10.0318Z" fill="#D7D9DD"/>
</svg>
