<svg width="15" height="15" viewBox="0 0 15 15" fill="none" xmlns="http://www.w3.org/2000/svg">
<path d="M5.23194 9.68701C6.43457 9.68701 7.41895 8.74072 7.41895 7.5835V3.97852C7.41895 2.82129 6.43457 1.875 5.23194 1.875C4.0293 1.875 3.04492 2.82129 3.04492 3.97852V7.58496C3.04346 8.74072 4.02783 9.68701 5.23194 9.68701ZM3.98096 4.00049C3.98096 3.34717 4.54346 2.8125 5.23047 2.8125C5.91748 2.8125 6.47998 3.34717 6.47998 4.00049V7.56299C6.47998 8.21631 5.91748 8.75098 5.23047 8.75098C4.54346 8.75098 3.98096 8.21631 3.98096 7.56299V4.00049Z" fill="#D7D9DD"/>
<path d="M6.32432 12.1875H5.69883V11.2222C7.60899 11.0186 9.14854 9.58887 9.51768 7.73438C9.57481 7.4502 9.34483 7.18799 9.05479 7.18799C8.83213 7.18799 8.64317 7.34473 8.59776 7.56299C8.27988 9.13184 6.89414 10.3125 5.23154 10.3125C3.56895 10.3125 2.18174 9.13184 1.86387 7.56152C1.81992 7.34326 1.62949 7.18652 1.40684 7.18652C1.1168 7.18652 0.888282 7.44873 0.943947 7.73291C1.31309 9.5874 2.85264 11.0171 4.76133 11.2207V12.1875H4.13584C3.87803 12.1875 3.66709 12.3984 3.66709 12.6562C3.66709 12.9141 3.87803 13.125 4.13584 13.125H6.32285C6.58067 13.125 6.7916 12.9141 6.7916 12.6562C6.7916 12.3984 6.58213 12.1875 6.32432 12.1875ZM12.0299 4.99951H9.21738C8.95957 4.99951 8.74863 5.21045 8.74863 5.46826C8.74863 5.72607 8.95957 5.93701 9.21738 5.93701H12.0299C12.2877 5.93701 12.4986 5.72607 12.4986 5.46826C12.4986 5.21045 12.2877 4.99951 12.0299 4.99951ZM12.0299 9.68701H9.21738C8.95957 9.68701 8.74863 9.89795 8.74863 10.1558C8.74863 10.4136 8.95957 10.6245 9.21738 10.6245H12.0299C12.2877 10.6245 12.4986 10.4136 12.4986 10.1558C12.4986 9.89795 12.2877 9.68701 12.0299 9.68701ZM12.0299 7.5H10.4684C10.2105 7.5 9.99961 7.71094 9.99961 7.96875C9.99961 8.22656 10.2105 8.4375 10.4684 8.4375H12.0313C12.2892 8.4375 12.5001 8.22656 12.5001 7.96875C12.5001 7.71094 12.2877 7.5 12.0299 7.5Z" fill="#D7D9DD"/>
<path d="M12.8125 2.18701H8.28027C8.021 2.18701 7.81152 2.39648 7.81152 2.65576C7.81152 2.91504 8.021 3.12451 8.28027 3.12451H12.499C12.8447 3.12451 13.1245 3.4043 13.1245 3.75V11.25C13.1245 11.5957 12.8447 11.8755 12.499 11.8755H7.65625C7.39697 11.8755 7.1875 12.085 7.1875 12.3442C7.1875 12.6035 7.39697 12.813 7.65625 12.813H12.8125C13.5024 12.813 14.062 12.2534 14.062 11.5635V3.43799C14.062 2.74658 13.5024 2.18701 12.8125 2.18701Z" fill="#D7D9DD"/>
</svg>
