<svg width="16" height="19" viewBox="0 0 16 19" fill="none" xmlns="http://www.w3.org/2000/svg">
<path d="M5.26367 8.1352C5.26367 8.09105 5.28121 8.04872 5.31242 8.0175C5.34364 7.98629 5.38598 7.96875 5.43012 7.96875H6.76172C6.80587 7.96875 6.8482 7.98629 6.87942 8.0175C6.91063 8.04872 6.92817 8.09105 6.92817 8.1352V13.1287C6.92817 13.1728 6.91063 13.2152 6.87942 13.2464C6.8482 13.2776 6.80587 13.2951 6.76172 13.2951H5.43012C5.38598 13.2951 5.34364 13.2776 5.31242 13.2464C5.28121 13.2152 5.26367 13.1728 5.26367 13.1287V8.1352ZM10.7565 8.1352C10.7565 8.09105 10.739 8.04872 10.7078 8.0175C10.6766 7.98629 10.6342 7.96875 10.5901 7.96875H9.25847C9.21432 7.96875 9.17199 7.98629 9.14077 8.0175C9.10956 8.04872 9.09202 8.09105 9.09202 8.1352V13.1287C9.09202 13.1728 9.10956 13.2152 9.14077 13.2464C9.17199 13.2776 9.21432 13.2951 9.25847 13.2951H10.5901C10.6342 13.2951 10.6766 13.2776 10.7078 13.2464C10.739 13.2152 10.7565 13.1728 10.7565 13.1287V8.1352Z" fill="#303E52"/>
<path d="M4.03641 3.07932V0.6658C4.03641 0.298091 4.3345 0 4.70221 0H11.3602C11.7279 0 12.026 0.298091 12.026 0.6658V3.07932H15.8336C15.8777 3.07932 15.92 3.09686 15.9512 3.12808C15.9825 3.15929 16 3.20163 16 3.24577V4.57737C16 4.62152 15.9825 4.66386 15.9512 4.69507C15.92 4.72629 15.8777 4.74382 15.8336 4.74382H14.6892V17.9558C14.6892 18.3235 14.3911 18.6216 14.0234 18.6216H2.03901C1.6713 18.6216 1.37321 18.3235 1.37321 17.9558V4.74382H0.16645C0.122305 4.74382 0.0799673 4.72629 0.0487519 4.69507C0.0175365 4.66386 0 4.62152 0 4.57737V3.24577C0 3.20163 0.0175365 3.15929 0.0487519 3.12808C0.0799673 3.09686 0.122305 3.07932 0.16645 3.07932H4.03641ZM5.70091 1.6645V3.07932H10.3615V1.6645H5.70091ZM3.03771 4.74382V16.9571H13.0247V4.74382H3.03771Z" fill="#303E52"/>
</svg>
