<svg width="14" height="14" viewBox="0 0 14 14" fill="none" xmlns="http://www.w3.org/2000/svg">
<path fill-rule="evenodd" clip-rule="evenodd" d="M11.1779 1.91792C11.7791 2.51909 12.2511 3.21929 12.581 3.99902C12.9226 4.80659 13.0957 5.66411 13.0957 6.54785C13.0957 7.43159 12.9226 8.28911 12.581 9.09668C12.2512 9.87656 11.7791 10.5768 11.1779 11.1779C10.5766 11.7791 9.87642 12.2511 9.09668 12.581C8.28911 12.9226 7.43159 13.0957 6.54785 13.0957C5.66411 13.0957 4.80659 12.9226 3.99888 12.581C3.21914 12.2512 2.51895 11.7791 1.91777 11.1779C1.3166 10.5766 0.844629 9.87642 0.514746 9.09668C0.173145 8.28911 0 7.43159 0 6.54785C0 5.66411 0.173145 4.80659 0.514893 3.99888C0.844629 3.21914 1.31675 2.51895 1.91792 1.91777C2.51909 1.3166 3.21929 0.844629 3.99902 0.514746C4.80659 0.173145 5.66411 0 6.54785 0C7.43159 0 8.28911 0.173145 9.09668 0.514893C9.87656 0.844629 10.5768 1.31675 11.1779 1.91792ZM10.3891 2.611C10.8941 3.11596 11.2905 3.70411 11.5676 4.35906C11.8546 5.03739 12 5.75768 12 6.5C12 7.24232 11.8546 7.96261 11.5676 8.64094C11.2907 9.29602 10.8941 9.88416 10.3891 10.3891C9.88404 10.8941 9.29589 11.2905 8.64094 11.5676C7.96261 11.8546 7.24232 12 6.5 12C5.75768 12 5.03739 11.8546 4.35894 11.5676C3.70398 11.2907 3.11584 10.8941 2.61087 10.3891C2.10591 9.88404 1.70946 9.29589 1.43237 8.64094C1.14544 7.96261 1 7.24232 1 6.5C1 5.75768 1.14544 5.03739 1.43249 4.35894C1.70946 3.70398 2.10603 3.11584 2.611 2.61087C3.11596 2.10591 3.70411 1.70946 4.35906 1.43237C5.03739 1.14544 5.75768 1 6.5 1C7.24232 1 7.96261 1.14544 8.64094 1.43249C9.29602 1.70946 9.88416 2.10603 10.3891 2.611Z" fill="#D7D9DD"/>
<path d="M6.94331 9.19199C6.8251 9.07334 6.67378 9.01328 6.49331 9.01328C6.30552 9.01328 6.15024 9.07407 6.03188 9.19375C5.91279 9.30757 5.85244 9.46255 5.85244 9.65444C5.85244 9.83213 5.91221 9.98316 6.02998 10.1033C6.15508 10.2309 6.31094 10.2956 6.49331 10.2956C6.65913 10.2956 6.80942 10.2364 6.93994 10.1198L6.94697 10.1131C7.07134 9.98623 7.13433 9.83198 7.13433 9.65444C7.13433 9.46167 7.07002 9.3061 6.94331 9.19199ZM8.18506 3.37554C7.79014 2.9938 7.26338 2.80029 6.61943 2.80029C5.89258 2.80029 5.31675 3.04404 4.90762 3.5251C4.53086 3.97231 4.33984 4.55005 4.33984 5.24189C4.33984 5.32275 4.40547 5.38838 4.48633 5.38838H5.06802C5.14888 5.38838 5.2145 5.32275 5.2145 5.24189C5.2145 4.75688 5.32144 4.37456 5.53237 4.10547L5.53457 4.10254C5.77246 3.78276 6.11772 3.62734 6.59014 3.62734C7.01143 3.62734 7.33457 3.73853 7.55063 3.95796C7.76479 4.18911 7.8688 4.48618 7.8688 4.86587C7.8688 5.12515 7.77739 5.3708 7.58931 5.61704C7.55561 5.65981 7.45308 5.77437 7.15791 6.07554C6.68843 6.49346 6.38638 6.86069 6.23447 7.19775C6.10952 7.45381 6.04609 7.74092 6.04609 8.05147V8.25054C6.04609 8.38003 6.15098 8.48491 6.28047 8.48491H6.69604C6.82554 8.48491 6.93042 8.38003 6.93042 8.25054V8.05147C6.93042 7.80815 6.99238 7.57627 7.11426 7.36314C7.20933 7.19922 7.36284 7.02139 7.57026 6.83462L7.57173 6.8333C7.99536 6.44145 8.25127 6.18643 8.3541 6.05356L8.35571 6.05151C8.61938 5.69746 8.75312 5.29185 8.75312 4.84609C8.75342 4.23379 8.56211 3.73896 8.18506 3.37554Z" fill="#D7D9DD"/>
</svg>
