<svg width="18" height="18" viewBox="0 0 18 18" fill="none" xmlns="http://www.w3.org/2000/svg">
<path d="M14.4748 4.27149L12.5468 2.34282C12.2723 2.06816 12.2724 1.62298 12.547 1.34842C12.8216 1.07389 13.2668 1.07398 13.5414 1.3486L16.6691 4.47751C17.112 4.92053 16.7982 5.67774 16.1719 5.67774H13.1384C12.4772 5.67774 11.8597 6.00835 11.4928 6.55879L11.0864 7.16863C10.8711 7.49177 10.4346 7.57915 10.1114 7.3638C9.78827 7.14847 9.70089 6.71192 9.91624 6.38878L10.3226 5.77896C10.9503 4.83719 12.0069 4.27149 13.1384 4.27149H14.4748ZM6.94005 10.8547C7.1554 10.5315 7.59194 10.4442 7.91508 10.6595C8.23822 10.8748 8.3256 11.3114 8.11025 11.6345L6.82907 13.557C6.20146 14.4988 5.14482 15.0645 4.01328 15.0645H1.82812C1.43981 15.0645 1.125 14.7497 1.125 14.3613C1.125 13.973 1.43981 13.6582 1.82812 13.6582H4.01328C4.67452 13.6582 5.29204 13.3276 5.65887 12.7772L6.94005 10.8547ZM13.0586 13.7285C11.977 13.7285 10.967 13.1879 10.3671 12.2878L5.61438 5.15611C5.44745 4.90563 5.22126 4.70024 4.95588 4.55819C4.6905 4.41613 4.39415 4.3418 4.09314 4.3418H1.82812C1.43981 4.3418 1.125 4.027 1.125 3.63868C1.125 3.25036 1.43981 2.93555 1.82812 2.93555H4.09314C5.17474 2.93555 6.18476 3.4762 6.78459 4.37626L11.5373 11.5079C11.7043 11.7584 11.9305 11.9638 12.1958 12.1059C12.4612 12.2479 12.7576 12.3223 13.0586 12.3223H16.1719C16.7982 12.3223 17.112 13.0795 16.6692 13.5225L13.5414 16.6514C13.2668 16.926 12.8216 16.9261 12.547 16.6516C12.2724 16.377 12.2723 15.9319 12.5468 15.6572L14.4748 13.7285H13.0586Z" fill="#333333"/>
</svg>
