<svg width="16" height="15" viewBox="0 0 16 15" fill="none" xmlns="http://www.w3.org/2000/svg">
<path d="M11.3333 0.1C11.1333 -0.0333333 10.8667 -0.0333333 10.6667 0.1L4.53333 3.36667H0.666667C0.266667 3.36667 0 3.63333 0 4.03333V10.7C0 11.1 0.266667 11.3667 0.666667 11.3667H4.53333L10.7333 14.6333C10.8 14.7 10.9333 14.7 11.0667 14.7C11.2 14.7 11.3333 14.7 11.4 14.6333C11.6 14.5 11.7333 14.3 11.7333 14.0333V0.7C11.6667 0.433333 11.5333 0.233333 11.3333 0.1ZM4 10.0333H1.33333V4.7H4V10.0333ZM10.3333 12.9L5.33333 10.3V4.43333L10.3333 1.83333V12.9ZM13.3333 4.03333C13.5333 4.03333 13.6667 3.96667 13.8 3.83333L15.2 2.43333C15.4667 2.16667 15.4667 1.76667 15.2 1.5C14.9333 1.23333 14.5333 1.23333 14.2667 1.5L12.8667 2.9C12.6 3.16667 12.6 3.56667 12.8667 3.83333C13 3.96667 13.1333 4.03333 13.3333 4.03333ZM13.8 10.9C13.5333 10.6333 13.1333 10.6333 12.8667 10.9C12.6 11.1667 12.6 11.5667 12.8667 11.8333L14.2667 13.2333C14.4 13.3667 14.6 13.4333 14.7333 13.4333C14.8667 13.4333 15.0667 13.3667 15.2 13.2333C15.4667 12.9667 15.4667 12.5667 15.2 12.3L13.8 10.9ZM15.3333 6.7H13.3333C12.9333 6.7 12.6667 6.96667 12.6667 7.36667C12.6667 7.76667 12.9333 8.03333 13.3333 8.03333H15.3333C15.7333 8.03333 16 7.76667 16 7.36667C16 6.96667 15.7333 6.7 15.3333 6.7Z" fill="#3E61FF"/>
</svg>
