<svg width="10" height="12" viewBox="0 0 10 12" fill="none" xmlns="http://www.w3.org/2000/svg">
<path d="M9.69443 5.44063L0.916991 0.0866103C0.824056 0.0298839 0.718622 1.23766e-05 0.611292 3.84515e-09C0.503962 -1.23689e-05 0.398522 0.0298349 0.305575 0.0865398C0.212629 0.143245 0.135454 0.224808 0.0818122 0.323026C0.0281706 0.421244 -4.60711e-05 0.532654 9.32736e-08 0.64605V11.354C-5.91994e-05 11.4674 0.0281512 11.5788 0.0817926 11.677C0.135434 11.7752 0.212615 11.8568 0.305568 11.9135C0.398522 11.9702 0.503971 12 0.611304 12C0.718637 12 0.824069 11.9701 0.916991 11.9133L9.69433 6.5594C9.78725 6.5027 9.86443 6.42117 9.91808 6.32298C9.97174 6.2248 9.99999 6.11342 10 6.00005C10 5.88667 9.97178 5.77529 9.91814 5.67709C9.8645 5.5789 9.78735 5.49734 9.69443 5.44063Z" fill="white"/>
</svg>
