<svg width="15" height="15" viewBox="0 0 15 15" fill="none" xmlns="http://www.w3.org/2000/svg">
<path d="M7.50049 0.944824C3.88525 0.944824 0.945312 3.88477 0.945312 7.5C0.945312 11.1152 3.88525 14.0552 7.50049 14.0552C11.1157 14.0552 14.0557 11.1152 14.0557 7.5C14.0557 3.88477 11.1157 0.944824 7.50049 0.944824ZM7.50049 12.9624C4.48877 12.9624 2.03809 10.5117 2.03809 7.5C2.03809 6.19043 2.50244 4.98779 3.27295 4.0459L4.76123 5.53271C4.36133 6.08789 4.12402 6.76465 4.12402 7.5C4.12402 9.36182 5.63867 10.8765 7.50049 10.8765C8.22412 10.8765 8.90527 10.6421 9.46631 10.2378L10.9546 11.7261C10.0127 12.498 8.81006 12.9624 7.50049 12.9624ZM5.2168 7.5C5.2168 7.06787 5.34424 6.66943 5.55225 6.3252L8.67969 9.45117C8.33105 9.66211 7.92676 9.78369 7.50049 9.78369C6.24072 9.78369 5.2168 8.75977 5.2168 7.5ZM11.728 10.9541L10.2368 9.46436C10.3833 9.26074 10.5151 9.04248 10.6147 8.80518L9.60693 8.38184C9.56299 8.4873 9.51172 8.58691 9.45459 8.68213L6.32422 5.55322C6.66846 5.34375 7.06836 5.21631 7.50049 5.21631C8.42334 5.21631 9.24951 5.76709 9.60693 6.61963L10.6147 6.19629C10.0874 4.93799 8.86572 4.12354 7.50049 4.12354C6.7666 4.12354 6.08838 4.3623 5.53467 4.76074L4.04492 3.27246C4.98682 2.50049 6.18945 2.03613 7.50049 2.03613C10.5122 2.03613 12.9629 4.48682 12.9629 7.49854C12.9629 8.80957 12.4985 10.0122 11.728 10.9541Z" fill="white" fill-opacity="0.8"/>
</svg>
