<svg width="18" height="18" viewBox="0 0 18 18" fill="none" xmlns="http://www.w3.org/2000/svg">
<g clip-path="url(#clip0_165_676)">
<path d="M8.47534 0.767445C7.62073 0.854439 7.57871 0.864564 7.38934 1.03143C7.21309 1.1863 7.14184 1.34306 7.14109 1.57706C7.13959 1.92618 7.37922 2.23594 7.70359 2.30567C7.8131 2.32893 7.94546 2.32518 8.23723 2.29031C8.9966 2.19994 9.98284 2.27231 10.7403 2.47481C11.5136 2.68144 12.3697 3.09057 12.9798 3.54505C13.2476 3.74418 13.6503 4.08618 13.6503 4.1143C13.6503 4.12555 13.4771 4.13944 13.2652 4.14506C12.8973 4.15443 12.8737 4.15893 12.7335 4.24556C12.638 4.30662 12.557 4.38775 12.4961 4.4833C12.4143 4.61531 12.4053 4.65469 12.4053 4.8748C12.4053 5.09491 12.4143 5.13431 12.4961 5.2663C12.5523 5.35743 12.6427 5.44781 12.7339 5.50406L12.8805 5.5948L14.1127 5.60981C14.7907 5.61806 15.4121 5.61505 15.4935 5.60343C15.5977 5.58665 15.6971 5.54791 15.7853 5.48979C15.8734 5.43167 15.9481 5.35549 16.0046 5.2663L16.0954 5.11968V2.37994L16.0046 2.2333C15.9437 2.13758 15.8626 2.05641 15.7669 1.99556C15.6348 1.91382 15.5955 1.9048 15.3753 1.9048C15.1552 1.9048 15.1158 1.9138 14.9839 1.99556C14.8927 2.05181 14.8023 2.14218 14.7461 2.2333C14.664 2.36568 14.6542 2.40843 14.6452 2.67469L14.6347 2.96944L14.3752 2.74968C13.122 1.69031 11.775 1.07981 10.1553 0.837177C9.78222 0.781314 8.75847 0.738951 8.47534 0.767445ZM2.28522 1.96819C2.01035 2.10505 1.87459 2.3548 1.8956 2.68443C1.91135 2.93006 2.02835 3.12694 2.23384 3.25406C2.36434 3.33506 2.41085 3.34593 2.66021 3.35531C2.81434 3.36094 2.94034 3.37219 2.94034 3.38006C2.94034 3.38794 2.83422 3.52181 2.70448 3.67706C1.56035 5.04805 0.920207 6.61931 0.776946 8.40806C0.721082 9.10744 0.793821 10.1949 0.913826 10.4473C0.976457 10.5797 1.16732 10.7593 1.30758 10.8178C1.58584 10.9341 1.99233 10.8178 2.17982 10.5684C2.32421 10.3768 2.34558 10.2204 2.29083 9.76293C2.17796 8.8168 2.30695 7.67343 2.63021 6.74981C2.7367 6.44606 3.05208 5.78681 3.23808 5.47856C3.45633 5.11706 4.05182 4.35131 4.11558 4.35018C4.12646 4.34981 4.13996 4.52306 4.14558 4.73493C4.15495 5.10281 4.15945 5.12643 4.24608 5.26667C4.30233 5.35743 4.39308 5.44781 4.48382 5.50406C4.61583 5.5858 4.65521 5.5948 4.87532 5.5948C5.09543 5.5948 5.13483 5.5858 5.26682 5.50406C5.35795 5.44781 5.44833 5.35743 5.50458 5.2663L5.59532 5.11968L5.61033 3.88744C5.61858 3.20943 5.61557 2.58806 5.60395 2.50668C5.58707 2.40249 5.5483 2.30307 5.49019 2.21497C5.43208 2.12687 5.35595 2.05209 5.26682 1.99556L5.1202 1.9048L3.78258 1.89656L2.44532 1.8883L2.28522 1.96819ZM16.0785 7.22231C15.981 7.27181 15.8778 7.35543 15.8208 7.43119C15.6791 7.61906 15.6551 7.78106 15.7057 8.20668C15.909 9.91556 15.4136 11.7343 14.3786 13.0772C14.1446 13.3809 13.9136 13.6491 13.8851 13.6494C13.8742 13.6498 13.8607 13.4766 13.8551 13.2647C13.8457 12.8968 13.8412 12.8732 13.7546 12.7329C13.6935 12.6375 13.6124 12.5565 13.5169 12.4956C13.3848 12.4138 13.3455 12.4048 13.1253 12.4048C12.9052 12.4048 12.8658 12.4138 12.7339 12.4956C12.6427 12.5518 12.5523 12.6422 12.4961 12.7333L12.4053 12.8799L12.3903 14.1122C12.3821 14.7902 12.3851 15.4116 12.3967 15.4929C12.4267 15.6977 12.5565 15.8946 12.7339 16.0041L12.8805 16.0948H15.6202L15.7669 16.0041C15.858 15.9478 15.9483 15.8574 16.0046 15.7663C16.0863 15.6343 16.0954 15.5949 16.0954 15.3748C16.0954 15.1547 16.0863 15.1153 16.0046 14.9833C15.9437 14.8876 15.8626 14.8064 15.7669 14.7456C15.6345 14.6638 15.5917 14.6537 15.327 14.6447L15.0333 14.6342L15.2793 14.3413C16.3548 13.0603 16.992 11.5941 17.1956 9.92981C17.2725 9.30243 17.2316 8.01056 17.1232 7.64044C17.0793 7.49006 16.8783 7.26506 16.7265 7.19606C16.5386 7.11093 16.2776 7.12143 16.0785 7.22231ZM2.50572 12.3954C2.40184 12.4129 2.3028 12.452 2.21501 12.5102C2.12721 12.5684 2.05263 12.6444 1.99609 12.7333L1.90534 12.8799V15.6197L1.99609 15.7663C2.05234 15.8574 2.14271 15.9478 2.23384 16.0041C2.36585 16.0858 2.40522 16.0948 2.62534 16.0948C2.84545 16.0948 2.88484 16.0858 3.01684 16.0041C3.10796 15.9478 3.19835 15.8574 3.2546 15.7663C3.33672 15.6339 3.34646 15.5912 3.35546 15.3249L3.36597 15.0302L3.62546 15.2499C4.86822 16.3007 6.22646 16.9179 7.83372 17.1632C8.55636 17.2731 9.91722 17.2513 10.3597 17.1227C10.5097 17.0788 10.7351 16.8778 10.8041 16.7259C10.938 16.4308 10.8307 16.0172 10.569 15.8203C10.3773 15.6759 10.221 15.6545 9.76346 15.7093C9.02434 15.7974 8.07109 15.7314 7.32297 15.5406C6.73159 15.3894 5.99248 15.0778 5.49034 14.7677C5.09848 14.5258 4.38672 13.9749 4.35597 13.8902C4.35109 13.8759 4.52096 13.8602 4.73359 13.8546C5.10371 13.8452 5.1266 13.8407 5.26723 13.7541C5.47985 13.6224 5.59047 13.4297 5.60546 13.1657C5.61559 12.9879 5.60585 12.9362 5.53534 12.7926C5.4461 12.6099 5.28334 12.4693 5.10297 12.4194C4.97922 12.3853 2.72209 12.3643 2.50572 12.3954Z" fill="#3E61FF"/>
</g>
<defs>
<clipPath id="clip0_165_676">
<rect width="18" height="18" fill="white"/>
</clipPath>
</defs>
</svg>
