<svg width="13" height="13" viewBox="0 0 13 13" fill="none" xmlns="http://www.w3.org/2000/svg">
<path d="M5.31818 9.45455V10.6364H1.18182C1.02662 10.6364 0.872941 10.6058 0.729556 10.5464C0.586171 10.487 0.455889 10.4 0.346147 10.2902C0.236405 10.1805 0.149352 10.0502 0.0899606 9.90681C0.0305686 9.76342 -1.81873e-09 9.60974 0 9.45455V1.18182C0 0.86838 0.124513 0.56778 0.346147 0.346147C0.56778 0.124513 0.86838 0 1.18182 0H9.45455C9.60974 -1.81873e-09 9.76342 0.0305686 9.90681 0.0899606C10.0502 0.149352 10.1805 0.236405 10.2902 0.346147C10.4 0.455889 10.487 0.586171 10.5464 0.729556C10.6058 0.872941 10.6364 1.02662 10.6364 1.18182V5.31818H9.45455V1.18182H1.18182V9.45455H5.31818ZM4.13636 3.54545L6.5 5.31818L4.13636 7.09091V3.54545ZM9.45455 13C8.75332 13 8.06784 12.7921 7.4848 12.4025C6.90175 12.0129 6.44732 11.4592 6.17897 10.8113C5.91063 10.1635 5.84041 9.45061 5.97722 8.76286C6.11402 8.07511 6.45169 7.44337 6.94753 6.94753C7.44337 6.45169 8.07511 6.11402 8.76286 5.97722C9.45061 5.84041 10.1635 5.91063 10.8113 6.17897C11.4592 6.44732 12.0129 6.90175 12.4025 7.4848C12.7921 8.06784 13 8.75332 13 9.45455C13 10.3949 12.6265 11.2967 11.9616 11.9616C11.2967 12.6265 10.3949 13 9.45455 13ZM9.45455 11.8182C9.92203 11.8182 10.379 11.6796 10.7677 11.4198C11.1564 11.1601 11.4594 10.791 11.6383 10.3591C11.8172 9.92717 11.864 9.45192 11.7728 8.99342C11.6816 8.53492 11.4564 8.11376 11.1259 7.7832C10.7953 7.45264 10.3742 7.22753 9.91567 7.13633C9.45717 7.04512 8.98192 7.09193 8.55002 7.27083C8.11812 7.44973 7.74897 7.75268 7.48925 8.14138C7.22953 8.53008 7.09091 8.98706 7.09091 9.45455C7.09091 10.0814 7.33993 10.6826 7.7832 11.1259C8.22647 11.5692 8.82767 11.8182 9.45455 11.8182ZM8.86364 10.0455V7.68182H10.0455V8.86364H11.2273V10.0455H8.86364Z" fill="#D7D9DD"/>
</svg>
