<svg width="13" height="13" viewBox="0 0 13 13" fill="none" xmlns="http://www.w3.org/2000/svg">
<path fill-rule="evenodd" clip-rule="evenodd" d="M9.96667 0.59687L8.94292 0L7.17058 3.10278L7.19767 3.11843H5.80179L5.82996 3.10226L4.05708 0L3.03333 0.59687L4.47417 3.11843H1.08333C0.484792 3.11843 0 3.58643 0 4.16348V10.955C0 11.532 0.484792 12 1.08333 12H8V10.955H1.08333V4.16348H11.9167V7H13L13 4.16348C13 3.58643 12.5152 3.11843 11.9167 3.11843H8.52529L9.96667 0.59687ZM9.36858 6.48574L8.60267 5.74696L6.30492 7.96278L4.00662 5.74696L1.70833 7.9633L2.47425 8.70209L4.00662 7.224L6.30437 9.44087L9.36858 6.48574Z" fill="white" fill-opacity="0.8"/>
<path d="M11 8C11.3916 8 11.9492 8.07113 12.6724 8.21423C12.7641 8.2321 12.8471 8.28335 12.9069 8.35912C12.9668 8.43488 12.9997 8.5304 13 8.62914V10.7587C13 11.0358 12.9357 11.3087 12.8128 11.5534C12.6899 11.7981 12.5122 12.0072 12.2952 12.1622L11.2236 12.9277C11.1575 12.9748 11.0797 13 11 13C10.9203 13 10.8425 12.9748 10.7764 12.9277L9.7048 12.1622C9.48785 12.0072 9.31015 11.7982 9.18727 11.5536C9.06439 11.309 9.00009 11.0362 9 10.7591V8.62956C9.00033 8.53082 9.03325 8.43531 9.09307 8.35954C9.15289 8.28377 9.23585 8.23252 9.3276 8.21465C10.0508 8.07155 10.6084 8.00042 11 8.00042V8ZM11 8.55039C10.7224 8.55039 10.336 8.5923 9.8456 8.67655L9.52 8.73625V10.7587C9.52003 10.9321 9.55732 11.1032 9.62904 11.2591C9.70077 11.4149 9.80505 11.5515 9.934 11.6584L9.9956 11.7062L11 12.4234L12.004 11.7062C12.1398 11.6092 12.253 11.4808 12.335 11.3306C12.417 11.1805 12.4656 11.0126 12.4772 10.8396L12.48 10.7587V8.73625L12.4308 8.72694C11.8556 8.61771 11.4028 8.5597 11.0788 8.55124L11 8.55039ZM12.0376 9.28029C12.0639 9.29861 12.0866 9.32224 12.1043 9.34983C12.1221 9.37743 12.1345 9.40845 12.1409 9.44112C12.1472 9.47379 12.1475 9.50747 12.1416 9.54024C12.1357 9.57301 12.1237 9.60423 12.1064 9.63211L11.2 11.0894C11.1821 11.1181 11.1589 11.1428 11.1317 11.1617C11.1046 11.1807 11.074 11.1936 11.042 11.1997C11.01 11.2058 10.9771 11.205 10.9454 11.1972C10.9137 11.1894 10.8838 11.1749 10.8576 11.1546L10.1216 10.583C10.0962 10.5633 10.0747 10.5384 10.0583 10.5099C10.042 10.4814 10.0311 10.4497 10.0263 10.4167C10.0215 10.3837 10.0229 10.3501 10.0304 10.3177C10.0379 10.2852 10.0514 10.2547 10.07 10.2278C10.0886 10.2009 10.1121 10.1781 10.1391 10.1608C10.166 10.1435 10.1959 10.132 10.2271 10.1269C10.2583 10.1219 10.2901 10.1233 10.3207 10.1313C10.3513 10.1392 10.3802 10.1535 10.4056 10.1732L10.9376 10.5864L11.7048 9.35353C11.7221 9.32565 11.7444 9.30164 11.7705 9.28289C11.7966 9.26414 11.8259 9.25101 11.8567 9.24425C11.8876 9.23748 11.9194 9.23722 11.9504 9.24348C11.9814 9.24974 12.0109 9.26239 12.0372 9.28071L12.0376 9.28029Z" fill="white" fill-opacity="0.8"/>
</svg>
