<svg width="13" height="13" viewBox="0 0 13 13" fill="none" xmlns="http://www.w3.org/2000/svg">
<path d="M0.849407 8.16398C0.211898 9.8196 0.314026 11.1403 1.08728 11.9129L1.08665 11.9135C1.51166 12.3398 2.12443 12.5682 2.86406 12.5682C3.94878 12.5682 5.27455 12.0836 6.6371 11.231L6.6777 11.2056L6.71893 11.2297C8.08086 12.0823 9.40726 12.5675 10.492 12.5675C11.231 12.5675 11.8431 12.3386 12.2694 11.9123C13.042 11.1397 13.1435 9.8177 12.506 8.16208C12.2814 7.57722 11.9693 6.97079 11.5887 6.36182L11.5634 6.32186L11.5887 6.28063C11.9517 5.71125 12.2593 5.10841 12.5073 4.48038C13.1435 2.82539 13.0414 1.50343 12.2694 0.730808C11.8444 0.304533 11.2322 0.0761719 10.492 0.0761719C9.40726 0.0761719 8.08149 0.560806 6.71893 1.41336L6.6777 1.43936L6.63774 1.41399C5.27582 0.560172 3.94942 0.0761719 2.8647 0.0761719C2.12569 0.0761719 1.51356 0.304533 1.08728 0.730808C0.314026 1.5047 0.212532 2.82476 0.849407 4.48038C1.0746 5.06587 1.38669 5.67293 1.76729 6.28063L1.79267 6.32186L1.76666 6.36309C1.40442 6.93268 1.09729 7.53549 0.849407 8.16334V8.16398ZM10.9227 7.42815C11.1371 7.81192 11.3211 8.19252 11.4631 8.56424C11.6839 9.13769 11.7993 9.66165 11.8057 10.0993C11.8114 10.5351 11.708 10.8961 11.4796 11.1244C11.2576 11.3465 10.9202 11.4517 10.4913 11.4517C9.73267 11.4517 8.7799 11.1257 7.78462 10.5668L7.68376 10.5104L7.77511 10.44C8.90642 9.56568 9.92153 8.55058 10.7958 7.41927L10.8656 7.32792L10.9227 7.42878V7.42815ZM6.6777 9.85258L6.6333 9.82087C5.29753 8.86696 4.1271 7.7006 3.16855 6.36817L3.13683 6.3225L3.16855 6.27809C4.12862 4.94695 5.29882 3.78082 6.6333 2.82539L6.6777 2.79367L6.72211 2.82412C8.05756 3.77848 9.22756 4.94527 10.1856 6.27809L10.2186 6.3225L10.1862 6.3669C9.22642 7.69824 8.05643 8.86458 6.72211 9.82023L6.6777 9.85195V9.85258ZM10.4913 1.19387C10.9189 1.19387 11.2564 1.29917 11.4796 1.52246C11.708 1.75082 11.8114 2.11049 11.8057 2.54628C11.7993 2.98398 11.6839 3.50794 11.4631 4.08138C11.3101 4.4723 11.1293 4.85176 10.9221 5.21684L10.8656 5.3177L10.7958 5.22636C9.92239 4.09428 8.90718 3.07907 7.77511 2.20564L7.68376 2.13587L7.78462 2.07941C8.78053 1.52119 9.73204 1.19387 10.4913 1.19387ZM2.43335 5.21748C2.22604 4.8518 2.0448 4.47195 1.89099 4.08075C1.67151 3.5073 1.55543 2.98334 1.55035 2.54565C1.54401 2.10986 1.6474 1.75019 1.87577 1.52056C2.09778 1.29854 2.43525 1.19324 2.86406 1.19324C3.62273 1.19324 4.57551 1.51929 5.57078 2.07878L5.67164 2.13523L5.5803 2.20501C4.44823 3.07845 3.43303 4.09366 2.55958 5.22573L2.4898 5.31644L2.43271 5.21748H2.43335ZM1.55035 10.0993C1.55669 9.66165 1.67087 9.13769 1.89099 8.56424H1.89226C2.04513 8.17349 2.22592 7.79416 2.43271 7.42878L2.48854 7.32792L2.55958 7.41927C3.43263 8.55125 4.44741 9.56646 5.57903 10.44L5.67037 10.5104L5.57078 10.5675C4.57487 11.1257 3.62337 11.4517 2.86406 11.4517C2.43652 11.4517 2.09905 11.3464 1.87577 11.1232C1.6474 10.8948 1.54401 10.5351 1.55035 10.0993ZM6.54005 7.72058C6.78158 7.74434 7.02515 7.70505 7.24696 7.60654C7.46877 7.50803 7.66123 7.35368 7.80555 7.15855C7.9901 6.9093 8.08696 6.60598 8.08101 6.2959C8.07507 5.98582 7.96665 5.68643 7.77268 5.44444C7.57871 5.20246 7.31009 5.03148 7.00874 4.95819C6.70739 4.8849 6.39026 4.91341 6.10682 5.03929C5.82338 5.16517 5.58958 5.38133 5.44189 5.65404C5.2942 5.92675 5.24094 6.24068 5.29041 6.54685C5.33988 6.85301 5.4893 7.13419 5.71535 7.34652C5.94141 7.55884 6.23139 7.69037 6.54005 7.72058Z" fill="#D7D7DD"/>
</svg>
