<svg width="22" height="22" viewBox="0 0 22 22" fill="none" xmlns="http://www.w3.org/2000/svg">
<rect x="0.700977" y="0.7" width="20.6" height="20.6" rx="3.3" fill="white" stroke="#303E52" stroke-width="1.4"/>
<path d="M15.1702 4H16.1488L18.3191 9.63476H17.3957L16.867 8.18266H14.4442L13.9155 9.63476H13L15.1702 4ZM14.7046 7.4724H16.6066L15.6753 4.92334H15.6438L14.7046 7.4724Z" fill="#303E52"/>
<path d="M16 11V13.5C16 14.5 16 15.5 14 15.5H12" stroke="#303E52" stroke-width="0.8" stroke-linecap="round" stroke-linejoin="round"/>
<path d="M10.1414 15.3586L11.1586 14.3414C11.2846 14.2154 11.5 14.3047 11.5 14.4828V16.5172C11.5 16.6953 11.2846 16.7846 11.1586 16.6586L10.1414 15.6414C10.0633 15.5633 10.0633 15.4367 10.1414 15.3586Z" fill="#303E52"/>
<path d="M4 13H6.57273C7.12516 13 7.55132 13.1263 7.86699 13.3946C8.16688 13.6471 8.31682 13.9865 8.31682 14.4205C8.31682 14.7362 8.23791 15.0045 8.08007 15.2255C7.92223 15.4307 7.70915 15.5885 7.42505 15.6911C7.79596 15.7621 8.08007 15.9121 8.26947 16.1409C8.45888 16.3698 8.55358 16.6776 8.55358 17.0564C8.55358 17.6246 8.35628 18.035 7.96958 18.3033C7.63813 18.5243 7.17251 18.6348 6.57273 18.6348H4V13ZM4.86021 13.7103V15.3912H6.34387C6.73846 15.3912 7.02257 15.3202 7.19619 15.186C7.36981 15.044 7.45662 14.823 7.45662 14.5231C7.45662 14.239 7.36981 14.0338 7.19619 13.9076C7.02257 13.7734 6.73846 13.7103 6.35965 13.7103H4.86021ZM4.86021 16.0936V17.9245H6.45435C6.81738 17.9245 7.10148 17.8614 7.30667 17.7509C7.55921 17.6009 7.69337 17.3642 7.69337 17.0406C7.69337 16.7092 7.59078 16.4645 7.39348 16.3146C7.19619 16.1646 6.8884 16.0936 6.47803 16.0936H4.86021Z" fill="#303E52"/>
</svg>
