<svg width="31" height="31" viewBox="0 0 31 31" fill="none" xmlns="http://www.w3.org/2000/svg">
<rect x="11" width="22" height="22" rx="4" transform="rotate(30 11 0)" fill="#3E61FF" fill-opacity="0.2"/>
<rect x="2.70098" y="4.7" width="20.6" height="20.6" rx="3.3" fill="white" stroke="#3E61FF" stroke-width="1.4"/>
<path d="M7.17123 12H8.14981L10.3201 17.6348H9.39672L8.86797 16.1827H6.44518L5.91643 17.6348H5.00098L7.17123 12ZM6.70561 15.4724H8.60754L7.6763 12.9233H7.64474L6.70561 15.4724Z" fill="#3E61FF"/>
<path d="M16.001 12H18.5737C19.1261 12 19.5523 12.1263 19.868 12.3946C20.1679 12.6471 20.3178 12.9865 20.3178 13.4205C20.3178 13.7362 20.2389 14.0045 20.081 14.2255C19.9232 14.4307 19.7101 14.5885 19.426 14.6911C19.7969 14.7621 20.081 14.9121 20.2704 15.1409C20.4599 15.3698 20.5546 15.6776 20.5546 16.0564C20.5546 16.6246 20.3573 17.035 19.9706 17.3033C19.6391 17.5243 19.1735 17.6348 18.5737 17.6348H16.001V12ZM16.8612 12.7103V14.3912H18.3448C18.7394 14.3912 19.0235 14.3202 19.1972 14.186C19.3708 14.044 19.4576 13.823 19.4576 13.5231C19.4576 13.239 19.3708 13.0338 19.1972 12.9076C19.0235 12.7734 18.7394 12.7103 18.3606 12.7103H16.8612ZM16.8612 15.0936V16.9245H18.4553C18.8184 16.9245 19.1025 16.8614 19.3076 16.7509C19.5602 16.6009 19.6943 16.3642 19.6943 16.0406C19.6943 15.7092 19.5918 15.4645 19.3945 15.3146C19.1972 15.1646 18.8894 15.0936 18.479 15.0936H16.8612Z" fill="#3E61FF"/>
<path d="M11.5264 13.9106H14.2581L13.1199 13" stroke="#3E61FF" stroke-width="0.8" stroke-linecap="round" stroke-linejoin="round"/>
<path d="M14.2588 15.9996H11.527L12.6652 16.9102" stroke="#3E61FF" stroke-width="0.8" stroke-linecap="round" stroke-linejoin="round"/>
</svg>
