<svg width="13" height="12" viewBox="0 0 13 12" fill="none" xmlns="http://www.w3.org/2000/svg">
<path d="M0.541667 2.18182H5.95833C6.28333 2.18182 6.5 1.96364 6.5 1.63636C6.5 1.30909 6.28333 1.09091 5.95833 1.09091H0.541667C0.216667 1.09091 0 1.30909 0 1.63636C0 1.96364 0.216667 2.18182 0.541667 2.18182ZM9.20833 3.27273C9.9125 3.27273 10.5083 2.83636 10.725 2.18182H12.4583C12.7833 2.18182 13 1.96364 13 1.63636C13 1.30909 12.7833 1.09091 12.4583 1.09091H10.725C10.5083 0.436364 9.9125 0 9.20833 0C8.2875 0 7.58333 0.709091 7.58333 1.63636C7.58333 2.56364 8.2875 3.27273 9.20833 3.27273ZM9.20833 1.09091C9.53333 1.09091 9.75 1.30909 9.75 1.63636C9.75 1.96364 9.53333 2.18182 9.20833 2.18182C8.88333 2.18182 8.66667 1.96364 8.66667 1.63636C8.66667 1.30909 8.88333 1.09091 9.20833 1.09091ZM12.4583 9.81818H10.725C10.5083 9.16364 9.9125 8.72727 9.20833 8.72727C8.2875 8.72727 7.58333 9.43636 7.58333 10.3636C7.58333 11.2909 8.2875 12 9.20833 12C9.9125 12 10.5083 11.5636 10.725 10.9091H12.4583C12.7833 10.9091 13 10.6909 13 10.3636C13 10.0364 12.7833 9.81818 12.4583 9.81818ZM9.20833 10.9091C8.88333 10.9091 8.66667 10.6909 8.66667 10.3636C8.66667 10.0364 8.88333 9.81818 9.20833 9.81818C9.53333 9.81818 9.75 10.0364 9.75 10.3636C9.75 10.6909 9.53333 10.9091 9.20833 10.9091ZM5.95833 9.81818H0.541667C0.216667 9.81818 0 10.0364 0 10.3636C0 10.6909 0.216667 10.9091 0.541667 10.9091H5.95833C6.28333 10.9091 6.5 10.6909 6.5 10.3636C6.5 10.0364 6.28333 9.81818 5.95833 9.81818ZM0.541667 6.54545H2.275C2.49167 7.2 3.0875 7.63636 3.79167 7.63636C4.7125 7.63636 5.41667 6.92727 5.41667 6C5.41667 5.07273 4.7125 4.36364 3.79167 4.36364C3.0875 4.36364 2.49167 4.8 2.275 5.45455H0.541667C0.216667 5.45455 0 5.67273 0 6C0 6.32727 0.216667 6.54545 0.541667 6.54545ZM3.79167 5.45455C4.11667 5.45455 4.33333 5.67273 4.33333 6C4.33333 6.32727 4.11667 6.54545 3.79167 6.54545C3.46667 6.54545 3.25 6.32727 3.25 6C3.25 5.67273 3.46667 5.45455 3.79167 5.45455ZM12.4583 5.45455H7.04167C6.71667 5.45455 6.5 5.67273 6.5 6C6.5 6.32727 6.71667 6.54545 7.04167 6.54545H12.4583C12.7833 6.54545 13 6.32727 13 6C13 5.67273 12.7833 5.45455 12.4583 5.45455Z" fill="white" fill-opacity="0.8"/>
</svg>
